<svg xmlns="http://www.w3.org/2000/svg" id="vector" viewBox="291.38 618.13 454.17 288.97"><g id="g_0"><path fill="#231f20" d="M415.4,865.3C419.5,865.3 421.7,863.5 421.7,860.3 421.7,857.1 419.5,855.2 415.4,855.2L409.9,855.2L409.9,865.3ZM421.8,872.6 L417.2,866.4C416.6,866.5 416,866.5 415.4,866.5L409.9,866.5L409.9,872.6L408.5,872.6L408.5,854L415.4,854c4.8,-0 7.7,2.3 7.7,6.3 0,2.9 -1.6,5 -4.5,5.8l4.8,6.5z" stroke="#00000000" fill-rule="nonzero"/><path fill="#231f20" d="m455.1,871.4l0,1.2l-13.2,-0l0,-18.6l12.8,-0L454.7,855.2L443.3,855.2L443.3,862.6l10.2,-0L453.5,863.8l-10.2,-0l0,7.6z" stroke="#00000000" fill-rule="nonzero"/><path fill="#231f20" d="m472,870.2 l0.6,-1c1.3,1.3 3.8,2.3 6.3,2.3 3.8,-0 5.5,-1.6 5.5,-3.6 0,-5.6 -12,-2.2 -12,-9.1 0,-2.6 2.1,-4.9 6.8,-4.9 2.1,-0 4.3,0.6 5.8,1.7L484.5,856.7c-1.6,-1.1 -3.5,-1.6 -5.3,-1.6 -3.7,-0 -5.4,1.7 -5.4,3.7 0,5.6 12,2.3 12,9 0,2.6 -2.2,4.9 -6.9,4.9C476.1,872.7 473.4,871.7 472,870.2" stroke="#00000000" fill-rule="nonzero"/><path fill="#231f20" d="M507.7,855.2L500.8,855.2L500.8,854L516,854L516,855.2L509.1,855.2L509.1,872.6L507.7,872.6Z" stroke="#00000000" fill-rule="nonzero"/><path fill="#231f20" d="M543.5,866.2 L538.5,855.5 533.5,866.2ZM544,867.4l-11.1,-0l-2.4,5.2l-1.5,-0l8.8,-18.6l1.4,-0L548,872.6L546.5,872.6Z" stroke="#00000000" fill-rule="nonzero"/><path fill="#231f20" d="M564.6,864.7L564.6,854L566,854L566,864.7c0,4.6 2.3,6.8 6.3,6.8 4,-0 6.3,-2.2 6.3,-6.8l0,-10.6l1.4,-0L580,864.7c0,5.3 -2.9,8 -7.7,8C567.5,872.7 564.6,870 564.6,864.7" stroke="#00000000" fill-rule="nonzero"/><path fill="#231f20" d="M606.3,865.3C610.4,865.3 612.6,863.5 612.6,860.3 612.6,857.1 610.4,855.2 606.3,855.2L600.8,855.2L600.8,865.3ZM612.7,872.6 L608.2,866.4C607.6,866.5 607,866.5 606.3,866.5L600.8,866.5L600.8,872.6L599.4,872.6L599.4,854L606.3,854c4.8,-0 7.7,2.3 7.7,6.3 0,2.9 -1.6,5 -4.5,5.8l4.8,6.5z" stroke="#00000000" fill-rule="nonzero"/><path fill="#231f20" d="M647.8,866.2 L642.8,855.5 637.8,866.2ZM648.3,867.4l-11.1,-0l-2.4,5.2l-1.5,-0l8.8,-18.6l1.4,-0L652.3,872.6l-1.5,-0z" stroke="#00000000" fill-rule="nonzero"/><path fill="#231f20" d="m682.2,854l0,18.6l-1.1,-0l-13.1,-16.1l0,16.1l-1.4,-0L666.6,854l1.2,-0l13,16.1 0,-16.1z" stroke="#00000000" fill-rule="nonzero"/><path fill="#231f20" d="m706.3,855.2l-6.9,-0l0,-1.2l15.2,-0L714.6,855.2L707.7,855.2L707.7,872.6L706.3,872.6Z" stroke="#00000000" fill-rule="nonzero"/><path fill="#231f20" d="m745,871.4l0,1.2l-13.2,-0l0,-18.6l12.8,-0L744.6,855.2L733.1,855.2L733.1,862.6l10.2,-0L743.4,863.8L733.1,863.8L733.1,871.4Z" stroke="#00000000" fill-rule="nonzero"/><path fill="#231f20" d="m402.4,788.9c-11,21.2 -23.5,42.2 -35.3,59.1 -21.9,32 -47.7,46.8 -55.1,42.5l-0,-0c-1.2,-0.6 -2,-1.9 -2.4,-3.5 -0.6,-3 -0.6,-11.9 13.6,-30.2C341.7,833.3 371.2,807.9 402.4,788.9m174.6,-69c7.5,-21.2 15.1,-38 22.6,-50.1 6.9,-10.9 11,-14.7 12.3,-14.7 0.1,-0 0.2,0 0.2,0 0.8,0.4 0.4,4.5 -5.8,16.7C598,688.4 586,706.8 577,719.9M744.8,742.1c-0.3,-0.8 -1,-1.3 -1.9,-1.4 -1.3,-0.2 -3.5,0.5 -5.2,2.9 -9.9,11.8 -35.7,27.6 -48.7,24.7 -3,-0.7 -5.1,-2.3 -6.5,-4.7 -2.7,-4.8 -2.2,-12.7 1.4,-23.7 0.8,-2.4 0.1,-4.6 -1.7,-5.8 -2.4,-1.5 -6.8,-1.3 -11.1,2.7 -0.4,0.4 -1.3,1.4 -2.5,2.6 -5.9,6.3 -21.7,23.1 -25,22.8 -0.2,-0 -0.3,-0.1 -0.3,-0.2 -1.7,-2.3 0.5,-9 2,-12.2 6.4,-15.7 20.4,-25.3 29.5,-24.4 4.7,0.4 8.5,3 10.9,7.4 1,2.5 2.9,4.2 5,4.5 1.3,0.2 2.5,-0.3 3.2,-1.2 0.8,-1.1 0.8,-2.8 -0.1,-4.6 -3.7,-7.7 -11.3,-10.2 -17,-11 -11.1,-1.6 -22.8,1.7 -32.3,9 -5,3.9 -9.1,8.7 -12,14 -3.4,5 -6.6,10.4 -10,16.1 -0.9,1.4 -1.7,2.9 -2.6,4.4C600.9,796 574.5,828.7 561.5,825.2l-0,-0c-2.7,-0.7 -4.8,-2.6 -6.2,-5.6 -7.9,-17.1 9.2,-67.3 15.4,-80.2 31.5,-41 48.4,-69.8 51.7,-88 1.4,-7.5 -0,-12.7 -4,-14.8 -4.2,-2.2 -10.8,-0.2 -16,5C586.6,658 568.6,703.7 557,743.6c-3.1,3.7 -11,13.1 -20.2,20.9 -9.6,8.2 -17.4,12.1 -23,11.6 -1.8,-0.4 -3.1,-1.4 -3.8,-3.1 -2,-4.2 -0.4,-12.1 4.4,-22.1 1.3,-2.8 0.6,-5.6 -1.7,-7.4 -2.4,-1.8 -6.4,-2.3 -10.2,0.9 -0.7,0.7 -2.2,3 -4.3,6.3 -4.5,6.9 -11.3,17.4 -16.8,21.9 -2.1,1.9 -4.2,2.8 -5.2,2.3 -0.7,-0.4 -0.9,-1.6 -0.6,-3.5l0,-0c0.9,-5.2 5.3,-15.3 8.7,-23.4 2.3,-5.3 4.3,-10 5,-12.4 1.1,-4.4 -0.2,-8.2 -3.1,-9.6 -2.8,-1.3 -6.3,0 -8.9,3.5C475.4,732.3 472.6,737.5 469.9,743.7 459.9,748.9 449.3,754.9 439,760.7 433.1,764 427,767.5 421.2,770.7c12.1,-29.5 20.4,-64.4 22.1,-82.5 0.1,-5.8 -1.1,-9.9 -3.4,-11.1 -1,-0.6 -2.2,-0.5 -3.2,0.2C435,678.3 433.3,681.3 433.8,686.2 432.2,700.8 416.7,719.9 393.1,736.2 369.8,752.4 344.3,761.9 326.8,761.2c-11.8,-0.5 -20.2,-4.8 -24.3,-12.3 -6.2,-11.5 -2.1,-30 11.9,-53.6 20.4,-34.9 61.2,-63 84.1,-64.8 9.7,-0.7 16.5,3.5 19.1,11.9 5.1,16.4 -6.8,36.8 -20.6,44.9 -3,1.8 -4.6,4.5 -4.2,7.2 0.3,2.3 2,4.2 4.2,4.8 1.7,0.5 6,0.9 11.1,-5.2 12.6,-15.4 20.7,-48.5 12.1,-65.2 -3.7,-7.3 -10.4,-10.8 -19.2,-10.2 -11.6,0.8 -26.9,7.8 -42.8,19.7 -15.5,11.6 -30.7,26.9 -42.9,43.3 -30.6,40.6 -27.7,72.5 -11.3,86.2 10.7,9 26.8,10.3 46.3,3.8 17.8,-5.9 37.8,-18.2 54.8,-33.6C420.1,724.4 430.7,710.2 434.9,698.5 430,728.9 421.6,748.1 407.7,778.3c-44,25.4 -72.8,47.6 -90.6,69.8 -17.1,21.6 -23.1,40.8 -15.8,51.3 3.3,4.7 8.8,7.2 15.8,7.2 3.6,-0 7.5,-0.6 11.7,-2 20.3,-6.4 41.9,-28.9 59.1,-61.6 9.2,-17.5 21.7,-41.4 30.2,-63.5 16.7,-9.8 33.3,-19 48.5,-26.9 -0.7,2.2 -1.2,4.4 -1.7,6.5C463.4,766.5 463.2,775.9 470.7,779.5c10.9,5.4 20.6,-6.1 28.6,-16.2 -2,5.3 -1.9,10 0.2,13.4 2,3.4 5.9,5.3 11.3,5.6 0.5,0 1,0 1.5,0 8.4,-0 17.5,-3.9 27.2,-11.7 4.9,-4 9.5,-8.5 13.6,-13 -9.1,33.6 -10.3,54.9 -3.5,65.1 2.5,3.7 6,5.9 10.6,6.4 0.5,0.1 0.9,0.1 1.4,0.1 16.5,-0 44.5,-30 61.6,-58.8 1.5,-2.4 2.9,-4.8 4.3,-7.1 0.4,4.5 2.2,7.8 5.1,9.3 11.5,6 24.5,-10.8 33,-21.8 2.1,-2.7 3.8,-4.9 5.2,-6.4 -3.5,7.5 -3.7,15 -0.5,20.7 2.9,5.4 8.6,8.7 16.1,9.4 1.4,0.2 2.8,0.2 4.2,0.2 19,-0 40.2,-13.3 52.1,-27.4 2.6,-2.8 2.5,-4.5 2.2,-5.3" stroke="#00000000" fill-rule="nonzero"/></g></svg>